<?xml version="1.0" standalone="no"?>
<!DOCTYPE svg PUBLIC "-//W3C//DTD SVG 20010904//EN"
 "http://www.w3.org/TR/2001/REC-SVG-20010904/DTD/svg10.dtd">
<svg version="1.0" xmlns="http://www.w3.org/2000/svg"
 width="260.000000pt" height="260.000000pt" viewBox="0 0 260.000000 260.000000"
 preserveAspectRatio="xMidYMid meet">
<metadata>
Created by potrace 1.11, written by Peter Selinger 2001-2013
</metadata>
<g transform="translate(0.000000,260.000000) scale(0.100000,-0.100000)"
fill="#000000" stroke="none">
<path d="M882 2527 c-28 -31 -37 -51 -62 -142 -18 -65 -23 -103 -21 -200 0
-66 2 -131 3 -144 3 -23 -1 -25 -52 -29 -66 -5 -101 -21 -120 -56 -7 -14 -17
-26 -21 -26 -8 0 -37 -80 -45 -126 -7 -40 3 -74 24 -74 9 0 32 -9 50 -20 29
-18 32 -24 32 -69 0 -28 -4 -52 -8 -55 -7 -4 -35 -11 -90 -20 -7 -1 -17 -7
-23 -13 -11 -11 -14 -99 -4 -143 3 -14 7 -36 10 -49 6 -33 9 -34 61 -36 l46
-1 2 -63 1 -63 -28 5 c-34 5 -55 -16 -37 -38 7 -8 10 -15 7 -15 -9 0 22 -71
45 -103 13 -18 63 -49 143 -87 68 -33 127 -60 132 -60 5 0 52 -14 104 -31 52
-17 101 -32 109 -34 8 -1 35 -9 60 -16 46 -13 54 -15 80 -18 8 -1 0 -8 -17
-16 -18 -8 -33 -19 -33 -25 0 -6 -16 -18 -35 -27 -32 -15 -53 -45 -47 -67 9
-29 -12 -68 -44 -83 -19 -9 -34 -20 -34 -25 0 -4 -5 -8 -11 -8 -13 0 -94 -65
-161 -130 -28 -26 -62 -74 -82 -115 l-35 -70 -54 56 c-61 62 -125 153 -155
219 -103 225 -170 452 -188 635 -10 102 -11 313 -2 365 4 25 14 92 23 150 19
139 19 137 61 271 32 102 46 129 105 210 38 52 85 120 104 151 34 54 35 58 21
85 -15 28 -105 127 -138 152 -14 11 -23 8 -60 -17 -24 -17 -59 -49 -78 -72
-19 -23 -51 -60 -70 -82 -41 -48 -90 -119 -90 -132 0 -5 -13 -36 -29 -70 -25
-54 -55 -154 -68 -226 -2 -14 -6 -36 -9 -50 -9 -51 -18 -220 -18 -355 0 -124
11 -301 19 -315 2 -3 6 -27 9 -55 14 -109 67 -345 96 -435 82 -247 297 -578
451 -693 l36 -27 607 0 607 0 8 22 c13 35 5 98 -16 127 -11 14 -40 40 -65 56
l-46 30 5 120 c4 91 9 123 20 132 39 31 11 160 -57 260 -28 40 -36 59 -27 64
6 3 57 16 112 28 276 62 470 162 570 295 26 34 27 40 13 50 -14 10 -14 18 6
79 15 48 26 67 39 67 19 0 19 -4 22 115 2 92 -9 125 -42 125 -7 0 -13 10 -13
23 0 12 -7 46 -14 74 -13 50 -13 52 4 43 44 -24 49 -8 25 85 -18 68 -63 122
-153 181 -29 20 -50 39 -48 43 3 4 6 37 7 72 5 170 -73 409 -139 426 -23 5
-33 -1 -79 -53 -39 -43 -56 -55 -62 -46 -24 39 -118 -2 -195 -84 -40 -42 -42
-43 -44 -19 -3 36 -62 167 -85 188 -11 10 -28 15 -38 12 -9 -3 -28 -8 -41 -11
-13 -3 -27 -6 -33 -8 -5 -1 -26 -6 -45 -10 -44 -11 -110 -43 -111 -56 -1 -6
-3 -14 -4 -20 -1 -5 -3 -16 -4 -24 -1 -11 -10 -13 -35 -9 -44 7 -77 -23 -70
-63 6 -32 13 -36 -102 61 -84 70 -198 137 -271 158 -49 15 -52 15 -71 -6z
m871 -264 c-7 -2 -19 -2 -25 0 -7 3 -2 5 12 5 14 0 19 -2 13 -5z m-1293 -19
c0 -8 -19 -13 -24 -6 -3 5 1 9 9 9 8 0 15 -2 15 -3z m-19 -57 c-10 -9 -11 -8
-5 6 3 10 9 15 12 12 3 -3 0 -11 -7 -18z m-110 -64 c13 -16 12 -17 -3 -4 -10
7 -18 15 -18 17 0 8 8 3 21 -13z m-50 -10 c13 -16 12 -17 -3 -4 -10 7 -18 15
-18 17 0 8 8 3 21 -13z m109 -53 c0 -5 -5 -10 -11 -10 -5 0 -7 5 -4 10 3 6 8
10 11 10 2 0 4 -4 4 -10z m-160 -120 c0 -5 -2 -10 -4 -10 -3 0 -8 5 -11 10 -3
6 -1 10 4 10 6 0 11 -4 11 -10z m40 0 c0 -5 -2 -10 -4 -10 -3 0 -8 5 -11 10
-3 6 -1 10 4 10 6 0 11 -4 11 -10z m-40 -34 c0 -3 -4 -8 -10 -11 -5 -3 -10 -1
-10 4 0 6 5 11 10 11 6 0 10 -2 10 -4z m120 -6 c0 -5 -5 -10 -11 -10 -5 0 -7
5 -4 10 3 6 8 10 11 10 2 0 4 -4 4 -10z m-80 -114 c0 -3 -4 -8 -10 -11 -5 -3
-10 -1 -10 4 0 6 5 11 10 11 6 0 10 -2 10 -4z m35 -6 c3 -5 1 -10 -4 -10 -6 0
-11 5 -11 10 0 6 2 10 4 10 3 0 8 -4 11 -10z m405 -40 c0 -5 -5 -10 -11 -10
-5 0 -7 5 -4 10 3 6 8 10 11 10 2 0 4 -4 4 -10z m1680 0 c0 -5 -2 -10 -4 -10
-3 0 -8 5 -11 10 -3 6 -1 10 4 10 6 0 11 -4 11 -10z m-2060 -20 c0 -5 -5 -10
-11 -10 -5 0 -7 5 -4 10 3 6 8 10 11 10 2 0 4 -4 4 -10z m535 -20 c3 -5 1 -10
-4 -10 -6 0 -11 5 -11 10 0 6 2 10 4 10 3 0 8 -4 11 -10z m1525 0 c0 -5 -2
-10 -4 -10 -3 0 -8 5 -11 10 -3 6 -1 10 4 10 6 0 11 -4 11 -10z m-1520 -40 c0
-5 -2 -10 -4 -10 -3 0 -8 5 -11 10 -3 6 -1 10 4 10 6 0 11 -4 11 -10z m40 0
c0 -5 -5 -10 -11 -10 -5 0 -7 5 -4 10 3 6 8 10 11 10 2 0 4 -4 4 -10z m40 6
c0 -3 -4 -8 -10 -11 -5 -3 -10 -1 -10 4 0 6 5 11 10 11 6 0 10 -2 10 -4z m40
-6 c0 -5 -5 -10 -11 -10 -5 0 -7 5 -4 10 3 6 8 10 11 10 2 0 4 -4 4 -10z m37
-5 c0 -8 -4 -12 -9 -9 -5 3 -6 10 -3 15 9 13 12 11 12 -6z m-837 -35 c0 -5 -5
-10 -11 -10 -5 0 -7 5 -4 10 3 6 8 10 11 10 2 0 4 -4 4 -10z m40 6 c0 -3 -4
-8 -10 -11 -5 -3 -10 -1 -10 4 0 6 5 11 10 11 6 0 10 -2 10 -4z m34 -4 c3 -5
-1 -9 -9 -9 -8 0 -12 4 -9 9 3 4 7 8 9 8 2 0 6 -4 9 -8z m61 -2 c3 -5 1 -10
-4 -10 -6 0 -11 5 -11 10 0 6 2 10 4 10 3 0 8 -4 11 -10z m625 0 c0 -5 -2 -10
-4 -10 -3 0 -8 5 -11 10 -3 6 -1 10 4 10 6 0 11 -4 11 -10z m35 0 c3 -5 1 -10
-4 -10 -6 0 -11 5 -11 10 0 6 2 10 4 10 3 0 8 -4 11 -10z m195 -16 c0 -8 -19
-13 -24 -6 -3 5 1 9 9 9 8 0 15 -2 15 -3z m-10 -84 c0 -5 -5 -10 -11 -10 -5 0
-7 5 -4 10 3 6 8 10 11 10 2 0 4 -4 4 -10z m40 6 c0 -3 -4 -8 -10 -11 -5 -3
-10 -1 -10 4 0 6 5 11 10 11 6 0 10 -2 10 -4z m40 -30 c0 -2 -8 -10 -17 -17
-16 -13 -17 -12 -4 4 13 16 21 21 21 13z m-990 -10 c0 -2 -8 -10 -17 -17 -16
-13 -17 -12 -4 4 13 16 21 21 21 13z m1145 -6 c3 -5 1 -10 -4 -10 -6 0 -11 5
-11 10 0 6 2 10 4 10 3 0 8 -4 11 -10z m-1077 -45 c-3 -3 -9 2 -12 12 -6 14
-5 15 5 6 7 -7 10 -15 7 -18z m1032 -11 c0 -8 -19 -13 -24 -6 -3 5 1 9 9 9 8
0 15 -2 15 -3z m52 -51 c-6 -2 -10 -8 -8 -12 3 -4 -1 -8 -9 -8 -11 0 -12 4 -4
14 6 7 17 13 23 12 7 0 6 -2 -2 -6z m-225 -838 c0 -8 -4 -12 -9 -9 -5 3 -6 10
-3 15 9 13 12 11 12 -6z m-117 -75 c0 -5 -2 -10 -4 -10 -3 0 -8 5 -11 10 -3 6
-1 10 4 10 6 0 11 -4 11 -10z m40 0 c0 -5 -5 -10 -11 -10 -5 0 -7 5 -4 10 3 6
8 10 11 10 2 0 4 -4 4 -10z m-145 -68 c-3 -3 -11 0 -18 7 -9 10 -8 11 6 5 10
-3 15 -9 12 -12z m25 -112 c0 -5 -5 -10 -11 -10 -5 0 -7 5 -4 10 3 6 8 10 11
10 2 0 4 -4 4 -10z m-103 -25 c0 -8 -4 -12 -9 -9 -5 3 -6 10 -3 15 9 13 12 11
12 -6z m23 -75 c0 -5 -5 -10 -11 -10 -5 0 -7 5 -4 10 3 6 8 10 11 10 2 0 4 -4
4 -10z m577 -15 c0 -8 -4 -12 -9 -9 -5 3 -6 10 -3 15 9 13 12 11 12 -6z m58
-25 c3 -5 1 -10 -4 -10 -6 0 -11 5 -11 10 0 6 2 10 4 10 3 0 8 -4 11 -10z
m-57 -25 c-3 -3 -9 2 -12 12 -6 14 -5 15 5 6 7 -7 10 -15 7 -18z"/>
</g>
</svg>
