<?xml version="1.0" standalone="no"?>
<!DOCTYPE svg PUBLIC "-//W3C//DTD SVG 20010904//EN"
 "http://www.w3.org/TR/2001/REC-SVG-20010904/DTD/svg10.dtd">
<svg version="1.0" xmlns="http://www.w3.org/2000/svg"
 width="260.000000pt" height="260.000000pt" viewBox="0 0 260.000000 260.000000"
 preserveAspectRatio="xMidYMid meet">
<metadata>
Created by potrace 1.11, written by Peter Selinger 2001-2013
</metadata>
<g transform="translate(0.000000,260.000000) scale(0.100000,-0.100000)"
fill="#000000" stroke="none">
<path d="M492 2505 c-73 -57 -190 -204 -231 -290 -97 -200 -115 -308 -115
-670 0 -247 2 -295 22 -410 71 -405 134 -575 308 -833 87 -129 167 -221 238
-273 l39 -29 603 0 603 0 7 23 c11 35 5 98 -12 125 -9 13 -38 38 -65 55 l-50
31 7 120 c4 81 11 126 21 137 35 41 5 167 -64 263 -19 26 -31 52 -26 56 4 4
69 21 143 39 153 36 262 77 374 141 119 68 221 187 174 203 -10 3 -9 12 3 38
9 19 19 48 23 66 4 19 15 33 27 36 17 5 19 15 19 111 0 102 -1 107 -23 117
-19 9 -27 25 -39 82 -9 40 -15 73 -13 75 2 2 12 -1 24 -7 29 -16 35 1 21 62
-21 89 -48 124 -154 199 l-48 35 -3 109 c-4 126 -23 219 -61 305 -25 56 -63
99 -87 99 -5 0 -34 -26 -63 -57 -42 -46 -56 -55 -66 -45 -32 32 -119 -7 -190
-86 l-37 -41 -12 36 c-22 69 -77 180 -91 186 -18 6 -182 -36 -225 -59 -31 -16
-39 -34 -34 -72 2 -11 -7 -12 -37 -7 -47 8 -72 -11 -72 -56 0 -16 -2 -29 -5
-29 -3 0 -44 33 -90 73 -102 88 -245 167 -307 170 -39 2 -43 0 -64 -38 -13
-22 -32 -76 -44 -120 -18 -67 -21 -102 -18 -220 l3 -140 -35 -3 c-74 -5 -101
-14 -125 -40 -37 -39 -73 -119 -80 -179 -7 -51 -6 -52 22 -59 15 -4 40 -13 56
-21 25 -12 27 -18 27 -73 l0 -59 -47 -7 c-76 -11 -83 -17 -83 -78 0 -29 5 -78
11 -109 l12 -56 49 -3 49 -3 3 -62 2 -63 -33 0 c-42 0 -43 -20 -7 -101 18 -40
38 -65 63 -82 95 -63 295 -139 515 -196 44 -12 81 -23 83 -25 3 -2 -6 -7 -18
-11 -13 -4 -36 -21 -52 -36 -16 -16 -34 -29 -42 -29 -17 0 -25 -23 -25 -71 0
-37 -3 -41 -67 -83 -38 -24 -103 -74 -145 -110 -63 -55 -84 -81 -114 -141 -20
-41 -40 -75 -43 -75 -28 2 -149 152 -198 246 -23 44 -64 142 -93 218 -124 331
-147 622 -81 1006 33 187 81 324 148 417 124 172 143 202 143 227 0 19 -21 48
-76 106 -42 44 -79 80 -83 79 -3 0 -25 -15 -49 -34z m541 -124 c89 -84 110
-149 34 -103 -40 24 -57 19 -57 -18 0 -37 -16 -47 -31 -19 -17 32 -25 189 -10
189 7 0 36 -22 64 -49z m1017 -78 c42 -88 90 -237 90 -277 0 -11 -6 -32 -13
-45 -22 -43 -117 -34 -223 23 -45 24 -47 26 -20 26 16 0 43 -8 60 -19 17 -10
55 -25 84 -32 60 -15 75 -7 85 47 13 71 -48 100 -184 89 -82 -6 -89 -5 -88 12
0 10 22 37 49 59 l48 42 -30 6 c-16 3 -39 1 -50 -5 -18 -10 -19 -8 -13 13 20
64 102 148 145 148 12 0 31 -28 60 -87z m148 26 c12 -50 16 -109 8 -109 -2 0
-11 -3 -20 -6 -13 -5 -16 2 -16 35 0 43 -21 58 -34 25 -4 -9 -9 -14 -12 -11
-6 6 48 116 57 117 3 0 11 -23 17 -51z m-656 -24 c40 -19 81 -47 92 -61 l18
-26 -22 12 c-12 6 -28 9 -36 6 -27 -10 -14 -36 36 -68 75 -50 67 -72 -37 -98
-50 -13 -54 -18 -56 -74 -2 -34 -5 -42 -14 -34 -7 6 -10 14 -7 19 3 5 0 8 -8
7 -9 -2 -12 8 -11 37 2 37 1 37 -6 10 -7 -29 -9 -28 -44 48 -41 86 -82 221
-73 243 10 27 89 17 168 -21z m226 -42 c-10 -2 -28 -2 -40 0 -13 2 -5 4 17 4
22 1 32 -1 23 -4z m-3 -43 c4 -6 10 -8 14 -5 13 7 31 -42 31 -84 0 -42 -16
-53 -64 -44 -20 4 -27 13 -31 42 -3 20 -11 44 -16 54 -7 13 -7 23 2 33 13 16
55 19 64 4z m111 -443 c42 -47 85 -149 83 -196 0 -9 -9 15 -20 54 -25 87 -43
111 -144 200 l-30 27 34 -19 c18 -10 53 -40 77 -66z m-110 1 c45 -32 89 -92
78 -110 -11 -18 -51 -8 -62 16 -7 15 -27 29 -54 38 -39 13 -43 18 -46 51 -3
31 0 37 16 37 11 0 41 -15 68 -32z m110 -159 c22 -24 10 -52 -24 -57 -29 -4
-51 40 -32 63 17 20 33 19 56 -6z m-191 -89 c0 -7 -6 -15 -12 -17 -8 -3 -13 4
-13 17 0 13 5 20 13 18 6 -3 12 -11 12 -18z m555 -15 c0 -8 -7 -15 -15 -15 -8
0 -15 7 -15 15 0 8 7 15 15 15 8 0 15 -7 15 -15z m-826 -123 c8 -15 23 -36 35
-46 23 -21 27 -36 9 -36 -21 0 -78 63 -78 87 0 31 16 29 34 -5z m-32 -87 l31
-40 -34 32 c-19 18 -42 47 -52 65 l-18 33 20 -25 c12 -14 35 -43 53 -65z m146
-23 c2 -7 -3 -12 -12 -12 -9 0 -16 7 -16 16 0 17 22 14 28 -4z m252 -107 c-12
-15 -30 -12 -30 6 0 5 10 9 21 9 18 0 19 -2 9 -15z m-190 -54 c0 -5 -6 -14
-14 -20 -16 -13 -32 2 -21 19 8 12 35 13 35 1z m30 -86 c-17 -20 -31 -6 -23
23 5 21 7 22 21 8 13 -12 13 -18 2 -31z m-74 -87 c-6 -33 -22 -56 -31 -47 -11
11 8 79 23 79 11 0 13 -7 8 -32z m14 -114 c0 -16 -5 -24 -12 -21 -12 4 -18 34
-10 50 7 15 22 -5 22 -29z m-125 -84 c0 -18 -16 -22 -35 -10 -13 9 -13 11 0
20 19 12 35 8 35 -10z m-150 -30 c4 -6 -5 -10 -19 -10 -14 0 -26 5 -26 10 0 6
9 10 19 10 11 0 23 -4 26 -10z"/>
<path d="M1400 2266 c0 -2 9 -6 20 -9 11 -3 18 -1 14 4 -5 9 -34 13 -34 5z"/>
<path d="M1512 2212 c-11 -25 -11 -25 4 -10 9 9 15 21 13 27 -2 6 -10 -2 -17
-17z"/>
<path d="M1521 2186 c10 -9 69 -36 69 -32 0 6 -55 36 -66 36 -4 0 -5 -2 -3 -4z"/>
</g>
</svg>
